<!-- Traced with Vector Magic, edited by Jonathan Moerman with Inkscape -->
<svg xmlns:svg="http://www.w3.org/2000/svg" xmlns="http://www.w3.org/2000/svg" version="1.1" width="1000" height="1000" viewBox="0 0 1000 1000" id="svg3373">
  <metadata id="metadata3392"/>
  <defs id="defs3390"/>
  <g id="#f79329ff">
    <path d="m189.72 163.67c7.51-10.32 19.34-17.98 32.28-18.62 24.13 1.02 45.47 13.83 64.98 26.96 42.36 29.88 79.21 66.81 113.37 105.61 8.76 9.57 16.8 19.85 25.54 29.39 28.01-3.33 53.95-6.17 80.06-5.59 24.72 0.32 49.41 2.11 73.89 5.64 37.66-44.21 76.58-88.04 122.96-123.37 15.62-11.81 31.82-23.12 49.78-31.11 14.17-6.34 30.83-10.3 45.79-4.27 13.51 7.92 22.71 21.43 28.74 35.58 6.43 15.36 10.32 31.67 12.96 48.07 5.84 35.36 7.75 71.24 7.74 107.04-0.64 41.89-3.62 83.7-7.79 125.35 24.9 38.61 41.8 82.34 49.56 127.6 21.17-2.36 41.86-10.04 63.4-8.07 6.67 0.04 13.23 4.56 14.97 11.11 2.87 15.24-6.39 18.85-18.03 21.23-18.94 2.81-37.81 6.19-56.88 7.93-0.08 13.31-0.13 26.64-0.87 39.94 20.14 3.87 40.61 6.11 60.49 11.29 5.23 1.83 10.09 5.54 11.89 10.97 2.7 14.72-8.84 22.29-21.56 20.6-18.05-2.33-35.86-6.11-53.79-9.18-3.62 14.29-6.42 28.8-10.24 43.04 15.53 6.4 32.98 9.65 47.5 16.77 17.26 9.02 6.83 35.31-12.68 29.55-16.16-4.1-31.91-9.67-47.68-15.03-18.63 34.97-46.89 64.19-79.64 86.22-34.92 23.63-74.28 40.09-114.77 51.45-51.77 13.68-105.15 21.02-158.65 22.28-78.39 0.25-165.25-14.89-230.19-39.82-36.6-15.03-71.28-35.6-99.97-63.03-17.2-16.55-31.97-35.71-42.95-56.94-17.41 5.69-34.26 11.78-52.44 16.48-22.99 2.56-24.32-25.88-6.5-32.59 14.74-6.3 30.97-8.28 45.67-14.8-3.72-14.75-7.26-29.55-10.7-44.37-20.14 4.23-40.28 9.4-60.96 10.05-23.58-1.65-15.1-30.07 2.16-32.63 18.84-3.68 37.75-7.02 56.53-11.01-0.6-12.83-0.77-25.69-0.43-38.53-20.12-3.34-40.54-4.91-60.45-9.5-3.68-1.01-8.16-1.06-10.69-4.34-6.55-7.42-4.98-20.27 3.23-25.8 4.89-3.52 11.16-1.59 16.69-1.51 18.1 1.64 35.99 5.12 53.84 8.41 7.47-42.9 23.22-84.32 45.72-121.58 1.27-2.27 3.07-4.3 3.82-6.82-1.49-20.64-3.78-41.21-4.92-61.87-1.3-15.6-1.53-31.25-2.46-46.88 0-19-0.74-38.05 0.75-57.02 1.14-29.07 4.69-58.06 10.77-86.51 4.54-16.68 9.75-33.71 20.16-47.77" id="path3376" fill="#f79329"/>
  </g>
  <g id="#2f2f2fff">
    <path d="m312.5 576.58c28.56-4.1 57.02 18.32 61.66 46.41 1.12 8.24 2.8 16.59 1.41 24.92-2.18 16.09-10.99 31.05-23.57 41.22-10.56 8.54-24.43 13.38-38.05 11.52-14.18-2.24-27.67-9.77-36.22-21.44-16.13-21.89-17.25-53.51-3.31-76.74 8.1-13.63 22.37-23.5 38.08-25.89z" id="path3379" fill="#2f2f2f"/>
    <path d="m673.51 576.65c28.06-3.81 56.48 17.53 61.38 45.28 3.55 13.11 3.09 27.39-2.01 40.03-6.3 16.45-19.29 30.94-36.25 36.6-11.95 4.16-25.31 2.82-36.79-2.2-10.11-4.52-18.62-12.41-24.14-21.99-9.43-15.85-11.91-35.46-7.72-53.33 3.23-13.85 10.93-27.01 22.81-35.14 6.78-4.67 14.52-8.11 22.72-9.25z" id="path3381" fill="#2f2f2f"/>
    <path d="m464.81 688.7c10.32-8.36 24.13-11.29 37.16-10.91 9.13-0.23 18.22 1.58 26.86 4.46 5.28 2.08 10.96 3.68 15.26 7.6 6.98 6.25 10.35 15.91 9.94 25.17 0.3 10.5-4.65 20.69-12.26 27.75-8.11 7.01-18.17 11.31-27.79 15.52-0.03 7.95 3.41 14.28 10.14 18.63 10.75 7.23 24.23 8.73 36.88 8.04 6.3-0.62 12.82-1.45 18.38-4.72 11.37-6.28 18.6-17.47 26.74-27.18 2.91-3.35 5.72-7.4 10.29-8.51 7.26-2.44 15.87 3.84 15.81 11.49 0.43 4.73-2.18 8.92-4.24 12.98-9.27 17.36-24.45 31.72-42.82 39.03-6.31 2.71-13.04 4.13-19.76 5.34-1.72 2.24-2.11 5.16-3.11 7.75-4.66 13.55-9.14 27.64-18.36 38.89-9.03 11.05-22.61 18.64-37 19.17-14.71 0.67-29.76-4.64-40.47-14.81-9.09-8.5-13.52-20.5-17.98-31.81-2.39-6.32-4.61-12.72-7.03-19.03-10.97-2.13-21.85-5.55-31.28-11.72-15.7-9.86-27.67-25-35.09-41.87-3.06-6.32 1.06-14.7 7.8-16.41 4.03-1.17 8.91-0.53 11.9 2.63 10.43 10.27 18.07 23.29 30.04 31.99 6.39 4.58 14.26 7.38 22.18 6.93 13.53 0.15 28.39-1.17 39.43-9.79 5.38-3.99 6.8-10.99 5.77-17.3-10.5-5.54-21.67-10.54-30.06-19.2-6.15-5.87-10.25-14.2-10.03-22.8 0.2-10.32 4.55-20.75 12.7-27.31" id="path3383" fill="#2f2f2f"/>
  </g>
  <g id="#e96c2ffd">
    <path d="m470.74 812.37c10.92-4.67 21.75-9.65 32.8-13.95 10.96 4.49 21.81 9.3 32.7 13.98-5.16 10.58-8.29 22.54-16.53 31.32-4.35 4.35-10.26 8.05-16.66 7.37-7.71-0.2-14.54-5.15-18.91-11.23-6.17-8.24-9.43-18.11-13.4-27.49z" id="path3386" fill="#e96c2f"/>
  </g>
</svg>
