<!-- Traced with Vector Magic, edited by Jonathan Moerman with Inkscape -->
<svg xmlns:svg="http://www.w3.org/2000/svg" xmlns="http://www.w3.org/2000/svg" version="1.1" width="1000" height="1000" viewBox="0 0 1000 1000">
  <path d="m377.88 264.21c20.27-9.73 44.03-10.22 65.73-16.29 3.33-0.2 6.97-0.44 9.91 1.46 4.14 2.29 6.07 6.93 7.12 11.31-5.57 7.69-11.41 15.19-17.28 22.65 38.42-6.87 77.82-4.78 116.41-0.59 62.4 10.6 20.62 16.86 82.22 12.87 17.68 1.89 35.28 4.5 53.04 5.53 8.97 1.33 18.05 0.83 27.08 1.36 13.34 0.09 26.73 0.01 39.96-1.82 27.66-3.77 54.08-13.18 80.79-20.9 4.36 11.05 4.79 23.66 0.59 34.83-5.5 15-16.8 26.96-28.74 37.18-5.37 4.88-11.46 8.87-16.9 13.65 11.91 2.44 24.1 3.02 36.23 2.56 17.69 0.04 34.59-5.78 51.86-8.8 4.09-0.21 8.75-1 12.35 1.49 2.21 1.43 3.89 3.64 4.75 6.12-0.63 10.28-6.25 19.55-13.18 26.89-9.93 10.66-22.36 18.6-32.31 29.24 15.38 7.36 32.5 10.49 49.47 10.52 13.82 0.04 27.57-1.72 41.15-4.12 3.22 0.47 6.4 3.14 6.17 6.66-0.08 5.42-3.19 10.07-5.47 14.79-5.94 11.92-16.76 20.59-28.39 26.62-12.39 6.48-25.7 10.88-38.6 16.2 26.45 13.87 56.84 16.01 85.63 21.96 1.4 6.72 0.44 14.34-4.17 19.74-6.61 8.03-16.68 11.82-25.93 15.9-9.59 4.24-20.01 7.94-27.19 15.94-2.5 2.78-4.43 6.19-5.17 9.87 16.36 47.98 30.03 97.36 34.22 148.03 3.99 45.01-0.54 91.35-17.54 133.48-13.45 30.8-35.98 57.26-63.27 76.72-35.66 25.68-78.28 40.45-121.5 46.88-16.38 2.5-32.93 3.44-49.49 3.63-130.28-32.77-130.65-36.49-121.89-87.2 3.06-6.35 6.09-12.72 9.3-18.99 1.5 0.38 3.01 0.81 4.53 1.2 9.42-17.64 12.93-23.46 12.73-40.35-0.05-7.26 1.35-14.26 1.35-21.52 8.6-15.68 7.48-15.06-5.41-32.7-7.22 5.21-13.63 11.54-20.08 17.68-23.37 22.98-43.56 49.06-68.12 70.85-12.85 11.31-26.95 21.4-42.57 28.53-39.14 15.71-83.11 14.03-120.77 7.04-11.27-2.53-23.16-4.31-32.91-10.98-15.98-10.7-26.35-27.61-34.95-44.39 12.91-4.34 26.12-7.7 39.26-11.23 0.49-0.05 1.47-0.14 1.96-0.19 20.76-39.78 43.68-30.45 31.98-118.98-1.91-7.32-4.52-14.91-10.35-20.08-5.46-5.23-13.51-6.76-20.78-5.39-0.36 10.72 1.32 21.31 1.95 31.99 1.04 13.86 0.52 29.12-7.84 40.86-4.31 3.75-10.23 5.43-15.87 5.56-21.61-2.67-35.32-22.44-52.13-30.47-25.88 5.85-52.16 11.62-78.85 10.93-8.98 0.04-18.03-0.85-26.77-2.9-6.15 9.81-9.65 21.68-18.79 29.32-4.4 3.87-10.65 4.48-16.2 3.36-8.38-4.24-13.7-12.68-16.66-21.33-3.47-10.09-5-20.69-7.7-30.99-12.91-11.79-27.14-22.93-35.82-38.44-4.7-8.59-8.01-18.69-5.79-28.52 2.74-13.22 10.08-25.04 12.24-38.42 3.41-17.37 2.45-36.13 11.31-52.02 5.5-8.95 12.26-17.39 21.11-23.23 17.27-11.76 38.08-16.01 57.14-23.86 27.91-11.87 49.67-33.59 73.78-51.3 10.63-31.06 10.38-64.78 22.22-95.5 1.76-3.77 1.98-8.17 4.49-11.59 3.86-5.57 10.06-8.69 15.3-12.73 3.42-8.94 5.19-18.51 8.19-27.63 18.31-1.59 35.56-8.95 51.54-17.67 17.6-9.69 34.15-21.19 51.99-30.48" fill="#757f3f"/>
  <path d="m480.84 54.86c4.84-1.89 10.13 0.43 14.13 3.22 2.31 1.77 5.1 3.66 5.69 6.72 3.5 13.62 1.41 28.02-2.74 41.25-6.33 19.91-14.69 39.07-22.15 58.56-10.81 27.73-21.16 55.65-32.16 83.31-21.7 6.07-42.28 15.55-62.55 25.28-7.18 3.6-14.47 6.96-21.51 10.81-0.2-14.87-2.43-29.63-5.65-44.14-7.23-32.64-19.53-64.01-25.26-97-1.89-13 14.57-23.32 25.77-17.16 2.78 1.42 4.78 3.96 6.15 6.71 10.56 19.66 10.67 43.12 21.63 62.62 2.48 4.39 8.17 6 12.89 4.94 7.44-1.62 13.8-6.6 18.32-12.59 15.61-19.72 25.32-43.2 34.36-66.45 8.1-20.75 15.91-41.8 27.44-60.97 1.31-2.19 3.07-4.37 5.64-5.11zM756.65 111.75c4.3-3.09 8.65-7.3 14.39-6.75 5.78-0.4 10.84 3.89 13 8.98 3.93 9.09 2.9 20.24-2.83 28.35-17.39 27.84-42.22 49.71-63.85 74.07-24.37 27.11-49.16 53.87-75.37 79.22-14.69 13.76-27.64 29.45-43.88 41.5-11.61 8.88-25.45 14.94-40.02 16.58-7.61 1.45-15.37 1.64-23.07 1.19-7.8-0.91-15.3-4.65-20.24-10.83 5.71-17.54 17.93-31.79 30.43-44.92 4.69-5.61 10.26-10.46 14.56-16.39 9.39-13.9 14.44-30.29 16.56-46.82 2.87-21.85 1.25-43.95 2.54-65.9 0.18-13.43 1.49-26.92 4.88-39.94 1.3-5.34 5.78-9.63 11.11-10.9 6.98-1.73 14.94-0.18 20.52 4.42 6.88 12.24 5.97 26.95 4.3 40.41-0.86 10.65-3.1 21.48-0.91 32.11 2.55 11.17 16.53 17.09 26.65 12.19 16.5-6.9 31.15-17.6 44.06-29.88 23.01-21.61 41.98-47.42 67.17-66.69z" fill="#f79329"/>
  <path d="m230.05 483.96c0.91-14.82 7.21-29.11 16.76-40.39 14.58 21.05 29.15 42.11 43.45 63.36-8.72 6.85-17.87 14.48-29.23 16.07-7.83 1.2-15.62-2.6-20.63-8.49-7.61-8.14-10.98-19.56-10.35-30.55zM434.33 478.21c9.81-5.47 19.31-11.52 29.3-16.66 7.49 13.61 16.67 28.17 14.07 44.44-1.81 6.85-3.76 13.89-7.96 19.72-8.49 12.17-23.2 19.28-37.88 19.83-12.97 0.59-26.01-4.13-35.91-12.48-7.4-6.2-13.47-13.75-20.14-20.68 19.28-11.78 38.91-22.97 58.52-34.17zM367.05 690.39c27.97-26.85 66.28-42.23 104.93-43.41 6 0.09 12.06-0.31 18.02 0.75 11.21 1.4 22.09 7.59 27.83 17.52 2.5 3.98 0.83 8.94-0.62 13-3.45 8.8-12.13 13.91-20.25 17.77-10.9 4.92-22.06 9.36-32.35 15.52-12.82 7.88-22.86 19.5-31.3 31.8-12.33 17.74-22.04 37.33-36.29 53.71-5.54 7.08-11.9 13.54-19.22 18.77-20.63 14.92-45.64 21.51-69.9 27.89-13.14 3.53-26.35 6.89-39.26 11.23-29.48 9.82-52.99 34.35-63.15 63.53-4.36 13.41-16.66 23.59-30.56 25.69-11.57-35.62-4.49-76.56 17.58-106.71 10.47-13.32 26.38-20.89 42.23-25.8 21.24-6.9 44.28-10.73 62.59-24.37 12.63-8.92 21.39-22.01 28.85-35.31 5.17-9.17 9.99-18.55 15.66-27.43 8.07-11.62 15.9-23.48 25.21-34.15z" fill="#fcc21b"/>
  <path d="m92.18 587.31c7.43-1.45 14.8 2.42 20.02 7.47 7.67 8.38 12.49 19.81 11.65 31.28-0.33 6-3.43 12-8.84 14.9-5.57 2.95-12.07 1.97-18.11 1.95-15.1-1.75-26.01-17.2-24.94-31.92-0.12-11.46 9.08-21.69 20.22-23.68zM204.63 595.57c16.35-6.18 35.89 5.61 39.75 22.27 1.6 5.44-0.01 11.17-2.43 16.11-5.16 8.62-15.07 13.48-24.91 14-7.37 0.2-14.79 0.22-22.06-1.09-6.65-0.54-13.19-2.16-19.89-1.96-1.16-4.3-1.42-8.81-0.52-13.19 0.97-11.83 6.52-23.87 16.68-30.5 4.03-2.79 8.75-4.22 13.38-5.64z" fill="#2f2f2f"/>
  <path d="m485.1 611.65c10.08-1.5 20.23-0.24 30.28 0.82 19.22 2.77 37.94 9.48 54.23 20.1 9.6 6.38 19.14 13.64 24.93 23.85 4.76 8 6.99 18.35 2.99 27.12-3.9 7.7-8.81 14.94-14.8 21.18-11.36 11.62-25.69 19.75-40.18 26.83-16.15 7.75-32.62 14.9-48.25 23.69-15.15 9.02-27.46 21.94-38.79 35.28-5.06 5.58-8.81 12.19-12.1 18.94-5.35-4.98-10.26-10.64-16.69-14.27-5.32-3.4-10.6-7.46-16.91-8.71-1.65 1.36-1.19 3.6-1.37 5.48-0.07 5.68-1.03 11.32-0.74 17.01-0.12 9.41 1.16 18.76 2.55 28.04 0.93 5.04 1.56 10.32 4.24 14.81-8.89 8.02-21.17 9.64-32.59 10.91-9.67 0.67-19.42 1.49-29.1 0.46-15.9-2.38-29.26-11.96-42.94-19.67-0.49 0.05-1.47 0.14-1.96 0.19 24.26-6.38 49.27-12.97 69.9-27.89 7.32-5.23 13.68-11.69 19.22-18.77 14.25-16.38 23.96-35.97 36.29-53.71 8.44-12.3 18.48-23.92 31.3-31.8 10.29-6.16 21.45-10.6 32.35-15.52 8.12-3.86 16.8-8.97 20.25-17.77 1.45-4.06 3.12-9.02 0.62-13-5.74-9.93-16.62-16.12-27.83-17.52-5.96-1.06-12.02-0.66-18.02-0.75-38.65 1.18-76.96 16.56-104.93 43.41-7.3-7.11-14.59-14.23-21.92-21.3 14.61-8.81 29.24-17.61 44.29-25.66 29.69-16 61.79-28.91 95.68-31.78z" fill="#ed6c30"/>
  <path d="m666.91 658.36c21.97 11.69 40.97 28.98 54.77 49.68-28.78 15.82-59.08 28.79-89.9 40.12 11.69-15.26 21.99-31.85 28.09-50.17 4.45-12.74 6.61-26.17 7.04-39.63zM736.84 731.17c9.32 24.65 14 50.76 18.24 76.69-42.48 11.99-87.05 13.96-130.94 12.61-10.07-0.5-20.61-1.35-30.69-1.59-0.52-4.78 0.41 1.88-0.35-2.7-1.36-10.04-2.94-20.07-5.06-29.97 19.31-3.13 38.54-7.08 57.24-12.93 32.16-9.98 63.17-23.96 91.56-42.11zM710.12 843.93c13.77-1.75 27.42-4.34 41.03-7.1-5.1 22.2-10.74 44.27-16.4 66.33-22.61 1.24-45.29-0.45-67.72-3.32-29.7-3.86-58.85-11.01-87.66-19.06 4.72-13.29 8.83-26.8 12.73-40.35 21.92 5.21 44.49 6.83 66.95 7.34 17.06-0.59 34.15-1.43 51.07-3.84zM530.81 931.93c10.8-11.91 23.45-21.93 34.73-33.36 20.85 10.61 43.36 17.68 66.16 22.76 30.05 6.48 60.8 9.06 91.48 9.66-9.55 15.16-19.1 30.31-28.9 45.3-2.17 3.24-3.96 6.79-6.85 9.48-43.26-5.66-87.61-7.54-129.24-21.9-10.11-3.6-21.17-7.25-27.96-16.1-3.73-4.51-3.43-11.6 0.58-15.84z" fill="#bdcf46"/>
  <path d="m256.75 736.46c12.49-6.92 24.82-14.11 37.25-21.14 0.08 15.02-0.17 30.04-0.31 45.06-13.42-6.05-25.81-14.31-36.94-23.92zM91.74 743.43c6.72 2.15 13.44 4.3 20.15 6.49-3.6 7.05-7.19 14.11-10.5 21.3-2.75-9.41-6.64-18.46-9.65-27.79zM408.44 791.96c0.18-1.88-0.28-4.12 1.37-5.48 6.31 1.25 11.59 5.31 16.91 8.71 6.43 3.63 11.34 9.29 16.69 14.27 6.4 6.49 12.39 13.55 16.56 21.72 2.4 6.59 0 13.97-4.84 18.82-6.86 8.68-18.78 10.73-29.2 10.07-5.17-0.16-8.86-4.19-11.44-8.25-2.68-4.49-3.31-9.77-4.24-14.81-1.39-9.28-2.67-18.63-2.55-28.04-0.29-5.69 0.67-11.33 0.74-17.01z" fill="#fff"/>
</svg>
