<?xml version="1.0" encoding="UTF-8" standalone="no"?>
<svg
   xmlns:dc="http://purl.org/dc/elements/1.1/"
   xmlns:cc="http://creativecommons.org/ns#"
   xmlns:rdf="http://www.w3.org/1999/02/22-rdf-syntax-ns#"
   xmlns:svg="http://www.w3.org/2000/svg"
   xmlns="http://www.w3.org/2000/svg"
   width="136pt"
   height="128pt"
   viewBox="0 0 136 128"
   version="1.1"
   id="svg2">
  <metadata
     id="metadata32">
    <rdf:RDF>
      <cc:Work
         rdf:about="">
           <cc:license rdf:resource="http://www.apache.org/licenses/LICENSE-2.0"/>
        <dc:format>image/svg+xml</dc:format>
        <dc:type
           rdf:resource="http://purl.org/dc/dcmitype/StillImage" />
        <dc:title></dc:title>
      </cc:Work>
    </rdf:RDF>
  </metadata>
  <path
     d="m 26.91,15 c 3,-2.19 6.8,-0.27 9.62,1.3 8.21,5.09 14.75,12.4 20.97,19.69 6.96,-0.98 14.04,-1 21,0 5.72,-6.75 11.75,-13.38 19.04,-18.47 2.77,-1.79 5.86,-3.69 9.29,-3.49 3.69,0.73 5.24,4.67 6.19,7.87 2.37,8.7 1.76,17.82 1.58,26.73 0.11,3.73 -1.71,7.89 0.68,11.21 2.69,4.57 4.4,9.64 5.3,14.84 l 9.16661,-1.140847 c 1.90732,-0.23738 2.21554,3.900089 0.13339,4.240847 l -8.86,1.45 c 0.22729,1.830847 0.11559,3.553051 -0.03,5.35 l 8.84,1.71 c 2.39216,0.462737 0.94709,4.497618 -0.67,4.23 l -8.52,-1.41 c -0.26966,1.953051 -0.76661,4.000847 -1.46,5.93 l 7.20085,3.121525 c 1.79904,0.779875 0.10241,3.994825 -1.70085,3.418475 l -7.29,-2.33 c -5.18,10.06 -15.83074,15.85554 -26.34,18.71 -17.253109,4.68618 -36.177837,4.33546 -52.88,-2.34 -8.018676,-3.20488 -15.52,-8.52 -19.57,-16.37 -2.42,0.81 -4.823283,1.65755 -7.28,2.34 -1.130014,0.31391 -3.0114862,-0.93283 -2.67,-1.95 1.1993655,-3.572494 5.36,-3.35 8.2,-4.62 -0.679492,-1.936102 -1.227288,-4.017797 -1.46,-5.92 L 6.84,90.51 C 4.9700641,90.818375 3.9982381,86.710045 6.18,86.29 l 8.83,-1.7 C 14.762712,82.664407 14.9122,81.348983 14.98,79.23 L 6.11,77.78 C 3.83677,77.40839 4.4138451,73.426702 6.2333898,73.633898 L 15.42,74.68 c 1,-5.46 2.83,-10.78 5.69,-15.55 0.86,-1.22 0.99,-2.7 0.8,-4.13 C 21.14,46.68 20.95,38.28 21.55,29.94 22.25,24.75 22.8,18.75 26.91,15"
     id="path4"
     style="fill:#f79329"/>
  <path
     id="path10"
     style="fill:#2f2f2f"
     d="m 30.24,88.25 c 3.57,-1.1 6.81,1.31 10.11,2.24 5.38,1.51 11.15,2.61 16.67,1.23 4.03,-0.92 7.74,-3.23 11.96,-3.22 4.54,0.06 8.54,2.62 12.99,3.19 5.67,0.61 11.54,0.31 16.91,-1.75 2.75,-0.75 6,-2.51 8.65,-0.6 2.52,2.39 0.64,6.08 -0.52,8.68 -4.4,8.39 -14.27,11.41 -22.98,12.93 -13.72,2 -28.25,2.39 -41.37,-2.74 -6.25,-2.49 -12.65,-6.63 -14.81,-13.35 -0.96,-2.4 -0.36,-5.78 2.39,-6.61 M 78.124237,77.581017 C 79.406113,73.283746 83.687813,70.178277 87.94,69.32 c 4.326553,-0.873288 9.18344,0.773137 12.56,3.7 1.36173,1.18037 0.63284,3.817637 -0.833729,3.16661 C 96.637138,74.18527 93.11,72.1 88.98,73.14 c -2.025,0.24 -6.189679,1.746569 -8.080844,6.02745 -0.356763,0.807576 -3.447031,0.666709 -2.774919,-1.586433 z M 36.257458,72.060169 c 6.46,-4.92 17.913808,-2.715837 21.102542,4.659831 1.482619,3.429355 -2.265617,2.96001 -2.618368,2.327942 C 52.820255,75.605166 49.029599,73.573237 46.91,73.12 c -4.181509,-0.894138 -6.697199,0.447092 -10.141356,2.216441 -1.604637,0.824342 -2.492881,-2.057288 -0.511186,-3.276272 z" />
  <path
     id="path26"
     style="fill:#ffffff"
     d="m 80.97,94.59 c 2.59,0.15 5.19,0.26 7.78,0.25 L 88.76,107 c -2.58,0.58 -5.17,1.12 -7.78,1.52 z m -33.73,0.42 c 2.58,0.21 5.17,0.19 7.76,0.08 l -0.01,13.5 c -2.59,-0.51 -5.17,-1.08 -7.73,-1.76 z m 45.02,-0.39 c 2.6,-0.51 5.19,-1.235593 7.75,-1.935593 l 0.05,9.235593 c -2.45,1.66 -5.11,2.96 -7.83,4.1 z m -22.5,-3.31 c 2.6,0.67 5.19,1.38 7.73,2.25 l 0.02,15.41 c -2.6,0.02 -5.19,0.38 -7.79,0.44 z m -11.25,3.12 c 2.6,-0.92 5.19,-1.84 7.76,-2.84 l 0,17.94 c -2.59,-0.16 -5.18,-0.24 -7.77,-0.45 z m -22.53,-2.4 c 2.5,1.04 5.12,1.75 7.77,2.3 l -0.02,11.34 c -2.68,-1.29 -5.28,-2.75 -7.75,-4.41 z m 67.59,-0.782881 c 0.73898,-0.285424 2.59183,-0.390611 2.73,0.542881 0.39691,2.681512 -1.15983,4.959492 -2.84,7.11 z M 29.93,91.97 c 0.01904,-0.739012 1.672712,-1.967458 2.55,-1.5 l 0.01,7.69 c -1.801356,-1.701017 -2.618162,-3.932297 -2.56,-6.19 z" />
</svg>
