<svg xmlns:cc="http://creativecommons.org/ns#" xmlns:rdf="http://www.w3.org/1999/02/22-rdf-syntax-ns#" xmlns:svg="http://www.w3.org/2000/svg" xmlns="http://www.w3.org/2000/svg" width="136" height="136" viewBox="0 0 136 136" version="1.1">
  <metadata>
    <rdf:RDF>
      <cc:Work rdf:about="">
        <cc:license rdf:resource="http://www.apache.org/licenses/LICENSE-2.0"/>
      </cc:Work>
    </rdf:RDF>
  </metadata>
  <path d="m41.3 10.3c0.7-1.9 3.1-4.3 5.1-2.7 5.4 3.4 7.1 10.3 12.1 14.1 2.5 0.6 6.2 1.2 7.6-1.6 2.8-4.5 4.6-10 9.4-12.8 2.3-1.3 4.7 0.5 5.5 2.7 2 5.1 2.1 10.6 3 16l14.1 15.3c8.4 23.9 17.3 53.4 19.5 77.6l-5.9 12.2c-19.4 2.7-37.9 4.5-55-2.1 0.8-6.3 2.8-12.5 3.5-18.8 1.1-7.3 1.1-14.7 0.2-22l-1.5-6.4c-6.9 1.9-14.1 3.7-19.5 8.7-4.5 4.4-10.4 8.7-17.1 7.5C16.5 96.5 11.1 93.3 7.4 88.6 5 85.6 3.1 81.5 4.5 77.6 6.5 70.9 12.3 66.7 16.5 61.5c3.7-4.6 8.4-8.4 11.6-13.4 2.4-3.5 2.4-8 4.3-11.7 2.3-2.9 5.6-4.6 8.5-6.8-0.8-6.4-2.1-13.2 0.4-19.3" fill="#f79329"/>
  <path d="m83.9 26c3.8 1.8 7.5 3.9 11.2 5.9 3.2 1.8 6.8 2.5 10 4.1 1.7 0.8 3.1 3 2.3 4.4-1.4 2.5-7.8 2.5-6.8 5.4 1.2 3.3 18.8 4.3 16.9 8.6-1.5 2.9-8.6 4.5-8.1 5.3 2.6 4.4 14.1 4.6 15.1 11 0.5 3.4-9.3 3.5-9.1 4.8 0.9 9.1 14.4 8.4 14.1 13.4-0.5 3.7-9.6 4-9.3 6.3 0.6 4.2 7.6 6.2 11.2 9.5 1.1 1-0.5 3.1-1.6 4-2.4 1.8-5.6 1.8-8.3 2.7 1.3 5 5.9 7.5 9.5 10.7 2.7 2.2 0 5.3-2.4 6.3-5.4 2.1-11.2 2.5-16.9 2.5 0.5-4 1.2-8 1-12.1-0.3-4.3-2.5-8-3.3-12.2-0.7-4.5 0.7-9 0.1-13.5-0.8-4.2-3.6-7.7-4.4-11.9-0.7-3.5-0.2-7.2-1-10.7-0.9-3.2-3.3-5.7-5-8.6C95.8 56.7 96.9 49.8 93.5 44.6 89.4 38.9 84.4 33.3 83.9 26z" fill="#855c52"/>
  <path d="m58.9 81.7c2.4-0.7 7.1-3 7.3-2.2 0.6 2.2-5.1 4.7-5.8 8.6-0.4-2.1-1-4.2-1.5-6.4zM15.6 79.5c0.7-0.7 7.2-1.7 8 2 1 4.7-6.8 5.2-7.9 4.4C15 85.3 14.7 80.2 15.6 79.5zM49.5 45.5c3.3-1.1 7.3 1.9 6.7 5.5 0 3.8-4.9 5.9-7.9 4-3.7-2-3-8.5 1.3-9.5z" fill="#2f2f2f"/>
</svg>
