<svg xmlns:cc="http://creativecommons.org/ns#" xmlns:rdf="http://www.w3.org/1999/02/22-rdf-syntax-ns#" xmlns:svg="http://www.w3.org/2000/svg" xmlns="http://www.w3.org/2000/svg" width="136" height="128" viewBox="0 0 136 128" version="1.1">
  <metadata>
    <rdf:RDF>
      <cc:Work rdf:about=""/>
        <cc:license rdf:resource="http://www.apache.org/licenses/LICENSE-2.0"/>
    </rdf:RDF>
  </metadata>
  <path d="m53.5 48.6c2.9-1.3 5.3 1.3 7.7 2.4 2.6-0.5 4.1-3.3 6.8-3.6 3 0.1 4.5 3.3 7.1 4.1 2.5-1.1 3.8-4.3 6.8-4 5.1-0.1 7.4 5.4 9.5 9.1 8.8 18.2 20.7 34.8 35.2 48.8 2.2 2.1 5.3 4.2 4.9 7.7-0.5 4.5-5.4 7.1-9.6 6.7-6 0.1-10.9-5.1-17-3.5-5.3 1.3-10.2 4.5-15.9 4.3-7.5 0.2-14-6.5-21.7-4.1-6.7 2.2-13.5 5.4-20.7 4.1-5-0.3-8.4-5.8-13.7-4.4-7.2 1.7-14.4 4.3-22 3.7-3.3-0.5-6.8-3.3-6.5-6.9 0.3-3.2 3-5.3 5.2-7.2 14.8-12.5 26-28.6 36-45 2.6-4 3.5-9.4 7.7-12.1" fill="#006ca2"/>
  <path d="m56.4 56.4c2.5-1.2 4.5 2.1 6.8 2.8 1.9-0.4 3.9-2.8 4.9-3 2.8-0.4 4.5 2.5 7 3.1 2.3-0.4 3.8-2.6 6-3.3 2.2 0 2.8 2.5 3.8 4.1 3.1 7 7.2 13.4 11.8 19.5 1.1 1.5 3.1 4.3 0.5 5.4-5.1 0.7-10-2.7-15.1-1.6-4.1 0.7-7.6 4.1-11.9 3.4-4.3-0.4-7.9-3.2-12.1-4.1-5.3-0.5-10.2 2.8-15.5 2.1-1.9-0.8-1-3.1-0.2-4.4 4.1-6.9 8.8-13.5 12.1-20.9 0.6-1.1 1-2.3 2.2-2.9z" fill="#fff"/>
</svg>
