<svg xmlns:cc="http://creativecommons.org/ns#" xmlns:rdf="http://www.w3.org/1999/02/22-rdf-syntax-ns#" xmlns:svg="http://www.w3.org/2000/svg" xmlns="http://www.w3.org/2000/svg" width="136" height="128" viewBox="0 0 136 128" version="1.1">
   <metadata>
    <rdf:RDF>
      <cc:Work rdf:about="">
        <cc:license rdf:resource="http://www.apache.org/licenses/LICENSE-2.0"/>
      </cc:Work>
    </rdf:RDF>
  </metadata>
  <path d="M13.1 76.2C25.1 67.2 38.1 59.5 50.9 51.7l38.7 1.2c10.2 1 20.4 2 30.5 3.4 2.8 0.4 6.8 1.3 7.1 4.7 0.3 7.7 0 15.3 0.1 23-0.1 3.2 0.6 6.9-1.9 9.4l-29.2 29.9c-2.2 2.1-4.7 4.7-8.1 3.9L13.8 116.7c-1.9-0.4-4.7-1.2-4.6-3.7-1.1-10.6 0.2-21.3 0.4-31.9-0.1-2.3 1.9-3.7 3.5-4.9" fill="#855c52"/>
  <path d="M107.3 72.6L71 74.6C71.5 79.9 70.5 86 72.6 91.1 74 93.2 110.1 96.9 125.1 96.6 130.5 94 134.7 89.4 139.4 85.7 142.3 83 146.1 80.9 147.6 77.1 134.2 75.1 120.7 74.2 107.3 72.6zM64.2 72.9C63 73 61.7 74.1 60.8 74.6 48.8 82.9 36.5 90.8 24.8 99.4 30 100.1 35.4 99.9 40.3 102.2 43 103.4 44.1 106.3 45.5 108.8 52.2 103.5 59.5 99 65.8 93.3 66.7 86.9 66.4 80.3 66 73.8 65.5 73 64.9 72.8 64.2 72.9zM152.4 84.1C142.5 92.2 132.9 101 122.8 109 119.8 111.5 115.7 114.2 116.2 118.7 116.2 128.5 116.1 138.4 116.4 148.2 121.5 144.9 124.9 139.7 129.3 135.5 136.3 128.8 143.4 122.2 150.3 115.3 152.7 113 153.9 109.7 153.8 106.3 153.7 99.1 154.1 91.9 153.6 84.6L152.4 84.1zM72.5 97.5C71.7 97.5 70.9 97.5 70.1 97.6 66.6 99.3 63.8 102.1 60.7 104.4 55.9 108.3 50.6 111.5 46.6 116.1 52.2 119.1 54.6 119.4 60.7 120.4 65.1 121 73.8 121.5 78.3 120.6 83.6 118.4 85.4 111.9 90.3 109.1 97 106 104.3 109.7 111.3 108.8 114.6 108.1 116.7 105 118.9 102.7 109 101 98.9 100.3 88.9 99 83.4 98.6 78 97.4 72.5 97.5zM22.7 106.4C21.5 106.4 20.3 106.4 19.2 106.6 18.2 117.3 18.3 128 18.6 138.7 46 144 78.5 147.5 108.8 150.4 108.7 139.5 108.9 128.6 108.7 117.8 103.4 117.7 98.2 116.3 93.1 116.9 89.9 120 88.3 124.4 84.5 126.9 79.6 129.9 73.7 128.7 68.4 128.1 60.4 126.9 52.2 126.8 44.5 124.3 37.8 121.4 38.6 112.4 33.2 108.3 29.9 107.2 26.2 106.4 22.7 106.4z" transform="scale(0.8,0.8)" fill="#fcc21b"/>
  <path d="M61.3 13.3 80 13.3 80 44.5 95.7 44.5 70.6 78.6 45.6 44.5 61.3 44.5z" fill="#ed6c30"/>
</svg>
