<svg xmlns:cc="http://creativecommons.org/ns#" xmlns:rdf="http://www.w3.org/1999/02/22-rdf-syntax-ns#" xmlns:svg="http://www.w3.org/2000/svg" xmlns="http://www.w3.org/2000/svg" width="136" height="128" viewBox="0 0 136 128" version="1.1">
   <metadata>
    <rdf:RDF>
      <cc:Work rdf:about="">
        <cc:license rdf:resource="http://www.apache.org/licenses/LICENSE-2.0"/>
      </cc:Work>
    </rdf:RDF>
  </metadata>
  <path d="m51.4 51.3c2.7-1.9 6-2 9.2-1.5l18.8 1.9c13.6 1.5 27.3 2.7 40.9 4.5 2.8 0.5 6.8 1.4 7 4.8 0.3 8 0 16 0.1 24 0 2.8 0.3 6.1-1.9 8.3-9.8 10.8-20.1 21.3-30.8 31.3-1.7 1.7-4 3.1-6.5 2.6L13.9 116.7c-1.9-0.4-4.7-1.1-4.7-3.6-1-10.7 0.2-21.4 0.4-32-0.1-2 1.6-3.4 3-4.5 12.3-9.4 25.7-17.1 38.8-25.3" fill="#855c52"/>
  <path d="M15.2 85.2C15.9 84.6 23.6 85.6 26.5 86.6c4.4 3.2 3.6 10.6 9.1 12.8 6.4 2 13.2 2.1 19.8 3.1 4.2 0.6 9 1.4 12.7-1.4 3-1.9 3.9-6.1 7-7.8 4-0.1 7.8 0.4 11.9 0.9 0.2 8.7 0.1 17.3 0.1 26-24.3-1.9-51-5.3-72.1-9.2-0.4-8.3-0.1-25.3 0.3-25.7zM54.1 79.1c2.5-2.2 6-0.9 8.9-0.9 10.7 1.3 21.4 2.1 32 3.9-2 2-3.8 5-7 5-5.5 0.2-11.4-2.5-16.5 0.4-3.4 2.5-5 7.1-9 9C57.7 97.3 53.7 96.2 48.9 95.8 45.2 95.3 40 95.2 37.3 92.1 43 87.8 48.5 83.4 54.1 79.1zm42.4 9.4c8.6-7.1 17.2-14.3 25.6-21.7 1.7 3.8 0.6 8.2 0.9 12.2-0.2 4.2 0.9 9.2-2.3 12.6-6.1 6.2-12.7 12-18.9 18.2-3 2.8-5.1 6.6-8.8 8.6-0.2-8.2-0.1-16.4-0.1-24.5-0.1-2.3 1.9-4 3.5-5.4zM48 60c1.4-0.8 2.9-2.2 4.6-1.6 0.7 5.3 0.8 11 0 16.3-5.1 4.5-10.9 8.1-16.2 12.4-0.9-1.7-1.6-3.9-3.4-4.9-4-2.4-8.9-2-13.3-2.7 9.4-6.5 19-12.9 28.4-19.4zm8.8-4.1c4.2-1.3 41.3 3.8 62 5.8-5.8 5.6-11.8 11.3-18.7 15.6-12.1 0.1-24-2.4-36.1-3.4-2-0.5-4.8 0-6.2-1.6-1.3-1.5-0.8-10.9-1-16.3z" fill="#fcc21b"/>
  <path fill="#ed6c30" opacity="1" d="M44.8 34.8C53.1 23.3 61.5 12 69.8 0.6 78.2 12 86.6 23.3 94.9 34.7 89.7 34.8 84.5 34.8 79.3 34.8 79.3 40.4 79.3 46.1 79.3 51.7 79.3 53.6 79.3 55.5 79.3 57.3 79.3 60.2 79.2 63.1 79.2 66 73 66 66.7 66.1 60.5 65.9 60.5 62.3 60.5 58.6 60.5 55 60.5 53.3 60.5 51.5 60.5 49.8 60.5 44.8 60.5 39.8 60.5 34.8 55.3 34.8 50 34.8 44.8 34.8Z"/>
</svg>
