<svg xmlns:cc="http://creativecommons.org/ns#" xmlns:rdf="http://www.w3.org/1999/02/22-rdf-syntax-ns#" xmlns:svg="http://www.w3.org/2000/svg" xmlns="http://www.w3.org/2000/svg" width="136" height="128" viewBox="0 0 136 128" version="1.1">
  <metadata>
    <rdf:RDF>
      <cc:Work rdf:about="">
        <cc:license rdf:resource="http://www.apache.org/licenses/LICENSE-2.0"/>
      </cc:Work>
    </rdf:RDF>
  </metadata>
  <path d="m41 11.5c16.8-7.5 36.7-7.4 53.5 0 5.2 0.6 10 3.1 12 7.6 4.8 4.3 8.2 10.1 10.7 16 3.3 7.7 1.1 16.4 3.9 24.2 1.4 4.2 3.9 8.2 3.6 12.8 0 3.9-2 7.4-2.8 11.1 0.3 4.2 4.1 7.6 3.5 12-0.9 5.4-5.3 10.1-4.1 15.9 0.5 2.9 3.8 3.6 5.9 5.1-5.5 5.5-12.9 0-19.4 0.7 0.4 1.6 0.9 3.1 1.4 4.6-4.9 1.3-10.1 2.2-15 0.7-3.1-0.9-6.1-4.1-9.5-2.3 1.6 1.5 3.2 3 4.8 4.5-2.9 2.3-6.8 2.3-10.3 2-4.6-0.7-8.9-5.3-13.7-2.9-5.5 2.3-11.6 3.2-17.5 1.8 0-1.8 0-3.6-0.1-5.4-3.2-0.4-6 1.3-8.9 2.2-3.7 1.3-7.8 0.9-11.5-0.3 0.1-1.5 0.4-2.9 0.6-4.3-6 1.6-14.5 4.2-18.8-2 3.4-0.7 6.1-3.5 5.9-7.1 1-5.4-4.2-9-4.5-14.1-0.4-3.8 1.6-7.2 2.2-10.9-0.1-4.3-1.7-8.6-1.1-13 0.3-5.1 4.8-9 4.6-14.2-0.1-4.7-1.3-9.3-0.6-14 1-9.1 6.6-17 13.5-22.8 2.5-4.8 7.3-7.9 11.9-7.5" fill="#2f2f2f"/>
  <path fill="#ffffff" opacity="1" d="M81.1 84.6C83.3 82.4 86.3 81.4 89.5 81.3 90.9 84.9 91.4 88.9 91.1 92.8 86.5 92.2 83.1 88.6 81.1 84.6ZM43.9 95.5C43.2 91.2 43.4 86.3 46.1 82.7 49.3 81.6 54.9 85.1 52.7 88.7 50.3 91.6 47.4 94.1 43.9 95.5ZM70.2 98.1C71.3 94.8 72.7 91.5 75.7 89.6 77.8 92.5 77.6 96.1 77.5 99.5 75 99.1 72.6 98.6 70.2 98.1ZM56.4 92.5C60 91.2 62 95.4 62.6 98.2 60.3 99 58 99.7 55.7 100.3 54.5 97.8 54.4 94.6 56.4 92.5Z"/>
  <path d="m49 38.5c8.3 0.2 15.5-4.9 20.8-10.9 4 4.7 8.8 9.1 14.9 10.8 4.4 1.7 10.1 1.7 13.2 5.8 2.6 4.2 2.5 9.5 5.5 13.5 2.2 3.1 5.6 5.5 6.5 9.3 2.2 8-0.3 16.8-6 22.7-5.8 5.8-0.2 15.9-6.7 21.3-2.7 2.7-6.6 2.4-10 2.1-3.8-0.5-6.9 2.3-10.4 3.4-5.3 1.6-11.1 2.3-16.6 1.1-3.1-0.7-5-3.7-8-4.4-3.7-0.1-7.3 1.7-11 0.8-2.6-0.5-5.1-2.1-6.1-4.6C32.9 104.8 34.4 99.8 33.7 95.1 33 91.2 30.2 88.2 28.2 85 25.1 80.3 24.5 74.3 25.2 68.9c0.9-5.2 5.6-8.8 6.8-13.9 0.3-3.5-1-7.4 1.3-10.5 3.6-4.9 10-6.1 15.7-6m-9.7 9.8c-2.3 2.5-2.3 6.5-1 9.5 3.5 6.3 13.6 8.5 18.6 3 1.4-1.5 3-4.3 1.6-6.2-3.7-1.2-7.7-1.6-11.2-3.7-2.3-1.4-5.2-4.3-8-2.6m53 0c-4.4 2.7-8.9 5.3-14.2 5.8-2.7-0.2-2 3.3-1.1 4.9 3.3 6.4 12.6 5.9 17.6 1.6 3.2-2.8 4-7.6 2.1-11.2-0.8-1.5-2.9-2.2-4.4-1M57.7 68.9c0.2 2 0.3 4 1.9 5.5 5.3 5 16.4 2.3 16.6-5.6-2.8 0.9-5.4 2.2-8.3 2.6-3.5 0-6.8-1.6-10.2-2.5m-19.4 4.4c-2.8 1.3-3.9 4.7-3.5 7.6 0.6 5.1 4.1 9.3 4.6 14.5 0.4 3.9 0.7 8.5 4.2 11 5.7 3.9 13.6 2.9 18.9-1.2 3-2.4 7.4-2.6 10.5-0.1 5.4 4.2 13.7 5.4 19.3 1.1 3.5-2.6 3.5-7.3 4-11.2 0.6-5.6 4.9-10.3 4.5-16-0.1-4.8-6.2-8.2-10.3-5.5-3.5 2.2-6.6 5.1-10.5 6.6-7.5 3.4-16.4 3.5-24 0.1-3.9-1.4-7.1-4.2-10.5-6.5-2-1.5-4.9-1.5-7-0.3m21.5 40.7c5.5-0.7 11-0.5 16.5-0.2-0.2-5.1-6.3-5.6-10.2-5.3-3 0-8.1 1.5-6.3 5.5zM28.2 4c0.6-2.3 3.6-3.1 5.4-1.5 3 2.6 5 6 7.4 9.1-4.3 2-8.3 4.5-11.9 7.5C27.8 14.2 26.6 8.9 28.2 4zm73.4-1.4c1.7-1.6 4.8-1 5.6 1.3 1.8 4.9 0.4 10.3-0.8 15.2C102.8 16 98.7 13.5 94.4 11.5 96.8 8.5 98.8 5.2 101.6 2.6z" fill="#ed6c30"/>
</svg>
