<!-- Traced with Vector Magic, edited by Jonathan Moerman with Inkscape -->
<svg xmlns:svg="http://www.w3.org/2000/svg" xmlns="http://www.w3.org/2000/svg" version="1.1" width="136" height="128" viewBox="0 0 136 128">
  <path d="m15.5 1.3c5.3-1.1 10.6 0.8 15.5 2.6 6.8 2.7 13.3 6.2 20 9.2 7.2-1.6 14.5-2.8 21.9-2.2 4.4 0.3 8.6 1.6 13 2.2 9.3-4.2 18.4-9.6 28.5-11.7 3.4-0.5 7.6-0.8 10.2 2 2.1 2.7 2.4 6.4 2.2 9.7-0.8 9.6-4.8 18.5-10 26.5-1.7 2.6-3.9 5.1-4.3 8.4 1.2 7.9 10.4 19.9 15.3 24.3 2.3 2.4 6 6.4 3 9.6-3.6 1.1-6.3-3.2-10-2 1.3 2.8 3.2 5.2 4.1 8.2-1 6.2-8 1.1-11.1 0.5 0.4 3.4 3.6 7.1 0.8 10.2-2.2 1.9-4.7-0.6-6.9-1.4-3.6-2-9.7-2.9-11.8 1.7-2.4 6.5-3.9 13.4-7.5 19.4-6.1 8.7-18.1 10.1-27.8 7.9-4.8-1-9.3-3.6-12-7.7C43.4 111.8 40.3 98.8 39.4 97.8 36.3 94.3 27.5 96.1 23 99.9c-1.7 1.3-4.8 3.2-6.3 0.6-2.1-3.7 1-7.8 0.8-11.6-3 1.1-8.6 3.1-9.3 2.2C6.6 88.5 12.8 82.7 14.4 78.2 11.1 77.8 7.2 78 4.5 75.6 3.2 73.9 5.3 72.4 6.2 71.1 13.1 64.2 20.9 56.9 23 47 23.9 44.7 22 42.8 20.9 41 15 32.1 10.1 21.9 10 11 9.9 7.2 11.3 2.4 15.5 1.3" fill="#78a3ad"/>
  <path d="M44.3 21.4C38.7 17.6 32.4 15.1 25.9 13.4c-2.1-0.7-4.6 0.4-4.9 2.7 0.4 3.3 2.1 6.3 3.4 9.3 2 3.7 3.5 8.3 7.4 10.4 2.5-6.1 7-10.9 12.5-14.5zm48.3 0c5.6-3.8 11.9-6.4 18.4-8 2.1-0.7 4.6 0.4 4.9 2.7-0.3 3.3-2.1 6.3-3.4 9.3-2 3.7-3.5 8.3-7.4 10.4C102.5 29.8 98 25 92.5 21.4zM31.9 89.8c-0.7-3.4 3.7-4.6 6.2-5.5 9.2-3.1 19.9 2.5 22.3 11.9l0.1 0.9 16.4 0.6 0.1-0.7c1.1-4 3.2-7.8 6.7-10.2 7.3-3.5 16.5-4.2 20.7 2.5-5 0.1-10.8 0.9-13.5 5.7-3.1 6.2-4.2 13.3-7.6 19.5-2.7 4-7.5 6.3-12.2 6.4-5.6 0.2-12.1-0.2-16.2-4.5-5.1-5.9-6.6-13.7-9.3-20.8-2.3-5.2-8.8-5.3-13.6-5.6z" fill="#fff"/>
  <path d="m54 60.3c-4-1.8-8.1-3.7-12.1-5.5-4.4 5.1 0.6 13.5 7 12.7 3.6-0.2 5.3-3.9 5.1-7.2zM60.6 96.8C58.6 98.9 58.1 101.6 59.3 104.1c1.5 3.3 4.3 3.3 7.3 4.1-0.2 1.3-0.2 2.8-1.7 3.4-3.4 1.5-6.9-0.4-10.2-0.9 1.7 5.6 9.6 4.7 14 2.9 4.5 1.7 12.1 3.1 14-2.9-3.3 0.5-6.9 2.5-10.2 0.9-1.4-0.6-1.5-2.1-1.7-3.4 3-0.8 5.8-0.8 7.3-4.1 1.2-2.5 0.7-5.2-1.4-7.4-2.1-2.2-5-2.9-8.2-2.8-3.3 0.1-5.9 0.8-7.8 2.9zM81.9 60.3c4-1.8 8.1-3.7 12.1-5.5 4.4 5.1-0.6 13.5-7 12.7-3.6-0.2-5.3-3.9-5.1-7.2z" fill="#2f2f2f"/>
</svg>
