<!-- Traced with Vector Magic, edited by Jonathan Moerman with Inkscape -->
<svg xmlns:svg="http://www.w3.org/2000/svg" xmlns="http://www.w3.org/2000/svg" version="1.1" width="1024" height="1024" viewBox="0 0 1024 1024" id="svg3072">
  <metadata id="metadata3084"/>
  <defs id="defs3082"/>
  <g id="#2f2f2fff">
    <path d="m31.43 40.61c5.08 5.44 4.84 13.45 4.61 20.4l0.15 926.91 940.86 0.16c10.15-0.58 18.79 9.06 17.92 19.01-0.35 8.33-6.97 15.6-15.18 16.91l-969.17 0C5.28 1023.26 0.81 1018.91 0 1013.58L0 50.19C3.47 34.31 22.66 32.27 31.43 40.61z" id="path3075" fill="#2f2f2f"/>
  </g>
  <g id="#ed6c30ff">
    <path d="m941.38 44.44c16.31-8.28 34.98-6.34 44.27 8.93 7.68 12.64 7.32 32.16-5.2 41.1L809.13 216.72 708.74 504.73c-9.2 23.18-44.58 26.31-56.33 4.96L514.72 259.51 329.73 819.82l-4.5 11.46c-9.13 15.04-31.81 20.56-46.02 9.5-37.5-29.41-72.23-62.24-110.66-90.48-43.23 45.33-87.22 90.23-132.31 133.72 0-15.33 0.03-80.9 0.03-90.77C69.34 758.11 105.64 725.8 137.39 689.41c22.46-22.27 31.36-20.04 57.46 0.48L281.83 758.89c11.44-34.7 171.93-520.25 193.65-586.49 8.45-25.78 45.61-33.76 58.51-10.38l138.12 250.37 76.52-217.95c1.43-4.07 2.77-8.19 4.83-12.01 4.89-9.04 12.49-16.33 20.87-22.15L918.27 60.29c7.68-5.31 14.76-11.61 23.11-15.85z" id="path3078" fill="#ed6c30"/>
  </g>
</svg>
