<!-- Traced with Vector Magic, edited by Jonathan Moerman with Inkscape -->
<svg xmlns:svg="http://www.w3.org/2000/svg" xmlns="http://www.w3.org/2000/svg" version="1.1" width="1024" height="1024" viewBox="0 0 1024 1024">
  <path d="m512.47 388.51c1.13 0.47 1.8 1.53 2.54 2.45 44.09 53.78 77.88 114.87 117.93 171.53l163.3 4.98c34.16-32.24 76.33-71.54 110.45-103.82 10.11-9.52 19.61-19.8 30.96-27.9 6.64-4.81 13.61-9.2 20.93-12.91-0.73 65.96-2.11 131.92-3.19 197.87l-2.55 159.64c-0.38 9.24-0.31 18.49-0.67 27.72 1.86 17.3-4.23 34.8-14.79 48.43-28.98 33.48-68.56 49.97-106.51 63.3-43.08 15.08-87.76 25.32-132.85 32.14-71.46 10.81-143.91 12.76-216.09 12.17-35.1-0.29-70.15-2.71-105.05-6.22C298.38 948.79 219.92 933.73 153.03 902.98 128.51 891.55 104.87 876.66 87.71 855.39 78.05 844.32 74.8 829.3 73.95 815.01L64.99 425.66c11.54 1.8 22.58 7.22 30.74 15.62 44.13 41.84 88.78 83.14 132.64 125.26l163.65-2.55c23.96-33.97 46.38-68.98 69.46-103.55 16.25-24.49 33.27-48.48 50.99-71.93" fill="#fcc21b"/>
  <path d="m277.43 411.05c3.02-9.03 9.92-16.01 17.17-21.85 34.66 57.03 64.55 116.75 97.42 174.79-21.15 31.43-41.45 63.49-64.01 93.95-34.25-29.32-66.27-61.12-99.64-91.4 13.83-44.96 28.31-89.73 42.55-134.56 2.19-6.97 4.61-13.88 6.51-20.93z" fill="#f79329"/>
  <path d="m632.94 562.49c32.42-57.73 61.97-117.1 96.78-173.48 8.15 6.8 15.43 15.45 17.87 26.02l48.54 152.88-98.1 89.6z" fill="#f79329"/>
  <path d="M69.44 619.13 79.59 623.51c20.43 10.97 35.3 18.78 43.83 39.07 14.17 30.57 9.3 69.41-13.1 94.81-9.72 11.2-22.86 18.98-37.17 22.7C71.71 726.42 70.62 672.8 69.44 619.13z" fill="#d7598b"/>
  <path d="m919.89 638.83c10.56-8.26 23.28-12.94 35.5-18.12l-2.55 159.64c-15.04-3.91-28.75-12.61-38.56-24.67-20.16-24.78-24.76-60.71-12.77-90.08 4.1-10.06 9.67-19.95 18.38-26.77z" fill="#d7598b"/>
  <path d="m541.32 696.85c30.72 18.17 45.37 50.68 42.28 83.23-1.97 20.72-10.63 41.14-25.7 55.71-11.45 11.07-26.87 18.78-42.85 18.82-33.51 0.09-61.12-26.63-68.57-55.02-9.71-36.99 1.12-78.27 30.96-98.29 19.81-13.29 44.81-15.73 63.88-4.45z" fill="#d7598b"/>
  <path d="m196.45 751.6c15.95-2.45 31.96 8.52 37.15 23.71 4.7 13.76 3.41 29.51-4.45 41.7-3.52 5.45-8.46 10.03-14.4 12.71-9.72 4.39-21.6 2.98-30.39-2.98-6.43-4.36-11.08-10.97-13.85-18.14-4.94-12.79-4.51-27.84 2.14-39.95 4.86-8.85 13.77-15.51 23.8-17.05z" fill="#ed6c30"/>
  <path d="m819.35 751.43c20.76-3.59 40.17 16.24 39.39 36.59-0.26 3.3-0.16 6.61-0.32 9.92-1.4 14.54-11.42 28.35-25.46 33-13.1 4.33-28.22-1.8-35.78-13.07-10.66-15.68-10.32-38.24 1.12-53.43 5.13-6.68 12.76-11.45 21.05-13.01z" fill="#ed6c30"/>
  <path d="m334.5 775.68c17.05-2.51 34.45 9.23 38.74 26.31 3.59 14.3 1.69 30.14-7.52 41.62-5.33 6.64-13.12 11.42-21.67 12.44-8.54 1.02-17.17-2.1-23.61-7.58-14.4-12.23-18.29-34.15-11.4-51.38 4.28-10.72 13.74-19.69 25.46-21.41z" fill="#ed6c30"/>
  <path d="m678.2 776.4c9.75-1.68 21.12-1.31 28.65 5.78 5.45 5.13 9.81 11.59 11.85 18.88 3.97 14.15 0.95 30.11-7.94 41.88-8.28 10.95-23.78 16.52-36.78 11.11-11.29-4.7-18.94-15.59-21.57-27.27-2.76-12.26-1.09-25.8 5.9-36.37 4.54-6.87 11.56-12.58 19.89-14.01z" fill="#ed6c30"/>
  <path d="m686.6 314.45a84.5 84.5 0 1 1-169 0 84.5 84.5 0 1 1 169 0z" transform="matrix(0.8,0,0,0.8,29.795527,-21.875953)" style="fill-opacity:1;fill:#fcc21b"/>
  <path d="m412.24 352.28a67.53 66.47 0 1 1-135.06 0 67.53 66.47 0 1 1 135.06 0z" transform="matrix(0.79162304,0,0,0.82127659,5.1504031,-10.040816)" style="fill-opacity:1;fill:#f79329"/>
  <path d="m412.24 352.28a67.53 66.47 0 1 1-135.06 0 67.53 66.47 0 1 1 135.06 0z" transform="matrix(0.79162304,0,0,0.82127656,473.28939,-10.426591)" style="fill-opacity:1;fill:#f79329"/>
  <path d="m136 337.5a66 68.5 0 1 1-132 0 66 68.5 0 1 1 132 0z" transform="matrix(0.82121212,0,0,0.78832117,-2.4848485,13.541606)" style="fill-opacity:1;fill:#fcc21b"/>
  <path d="m136 337.5a66 68.5 0 1 1-132 0 66 68.5 0 1 1 132 0z" transform="matrix(0.82121208,0,0,0.78832117,911.1979,12.968215)" style="fill-opacity:1;fill:#fcc21b"/>
</svg>
