<svg xmlns:svg="http://www.w3.org/2000/svg" xmlns="http://www.w3.org/2000/svg" width="1024" height="1024" viewBox="0 0 1024 1024" version="1.1">
  <path d="m604.6 47.6c44.3-18.7 95.2-19 140.8-4.2 38.5 12.5 73.5 36.6 97.4 69.5 19.3 26.6 29.9 58.6 33.9 91 2.2 18.2 2.6 36.7 1.5 55 10.8 7.1 17.7 19.3 19 32.2 2.3 22-5.4 43.3-13.9 63.2-9.5 20-32.4 29-42.4 48.6-10.4 23.9-27 44.4-44.8 63.2l-0.2 26.7c34.2 2.2 67.4 14 96.6 31.8 36.5 22.3 67.3 53.2 92 88 9.6 13.9 19.5 28 24.8 44.2 7.1 20.3 9 41.9 9.3 63.3l-0.5 75.9-342.6-0.1C637.1 747.6 588 707 531 682.9c7.6-12.6 15.4-25.4 26.2-35.7 41.5-38.5 60.7-100.2 46.4-155.2-4.5-8.6-8.4-17.5-10.6-27-5.9-24-5.1-49.1-11.9-72.9-13.5-53.2-45.8-101.7-90.4-133.8-5.6-46.7 3-95.8 27.6-136.1 22-36.1 50.3-59.4 86.4-74.6zM283.3 269.2c58.3-16.1 123.1-4.5 172.3 30.1 26.5 18.6 48.8 43.7 61.6 73.6 16.2 37.3 19.7 78.7 18.4 118.9 5.1 2.8 10.2 5.6 15.3 8.4 2.3 14.3 3.1 28.9 1.3 43.2-1.8 15.5-6.9 30.5-14.9 43.8-10.8 16.9-29.3 27.2-39.3 44.7-12.5 23-27.4 44.7-45.6 63.5-0.2 9-0.3 18-0.5 27 18.2 0.9 36.2 4.5 53.4 10.4 27.4 9.5 52.6 24.7 74.9 43 31.5 30.7 65.4 62.7 81.3 99.7 9.6 22 12.5 46.2 13 70l-0.5 78.4-667.9 0c0.2-24.7-0.5-49.4-0.2-74 0.3-16.1 0.3-32.4 4.4-48 8.1-32.9 27.5-61.9 49.9-86.8 22-24.2 46.7-46.2 74.6-63.4 28.5-17.6 61.4-29.4 95.2-29.1-0.1-9.1-0.1-18.1-0.3-27.2-26.8-25.2-39.4-61.2-63.8-88.4-4.3-4.7-9-9.1-12.7-14.3-15.1-20.3-23.5-46.6-19.3-71.9 1.6-10.4 6.2-20.2 12-28.9 0.7-39.3-0.2-69.9 11.6-103.9 18.9-57.1 67.8-102.8 125.9-118.9z" fill="#006ca2"/>
</svg>
